<svg xmlns="http://www.w3.org/2000/svg" viewBox="0 0 237 237"><defs><style>.cls-1{fill:#fff;}.cls-2{fill:#059115;}</style></defs><g id="Camada_2" data-name="Camada 2"><g id="Camada_8" data-name="Camada 8"><circle class="cls-1" cx="118.5" cy="118.5" r="118.5"/><path class="cls-2" d="M125.35,174.55c.06,1.8.17,3.6.17,5.4s.55,3.84-2.45,3.58c-.31,0-.75.45-1,.79A23.82,23.82,0,0,1,108.84,193h-6.15c-4.22-2-8.43-4-11.29-7.8a4.14,4.14,0,0,0-3.68-1.82c-6.44-.15-10.2-4.1-10.27-10.64,0-4.32-.27-8.67,0-13,.62-8.26-2.8-14.4-9-19.58-9.33-7.86-15.2-18-18.28-29.71-.51-1.92-.31-4-1.62-5.73V89c1.23-.84.86-2.26,1.12-3.39,5.41-23.4,19.75-38.24,42.76-44.85,2.23-.65,4.66-.48,6.74-1.7h14.37c2.09,1.23,4.52,1.1,6.77,1.66a58,58,0,0,1,42.42,68.48c-.67,3-1.73,3.77-4.73,2.73-5.16-1.77-5.22-1.59-4.26-7,4.57-25.75-13.41-51.5-38.75-55.52C87.49,45.05,62.61,62.91,58.85,90c-2.41,17.35,3.34,31.84,16.42,43.34,5.84,5.14,10.16,11.07,11.44,18.82.35,2.09,1.1,2.49,3,2.49,11.61,0,23.23,0,34.85.08l.76.68,0,7.48c-.45.19-.55.42-.07.7-.84,1.21-2.09.57-3.12.58-10.7.06-21.41.1-32.12,0-2.37,0-3.08.61-3.05,3,.09,6.62,0,6.61,6.55,6.62l31.08.12Z"/><path class="cls-2" d="M128.68,193c-4-3.42-4-5.81-.3-9.57,3.36-3.39,7.6-6.29,9.85-10.3s.29-9.29.58-14a73.19,73.19,0,0,1,2.38-15.45c4.45-15.87,15.63-23.9,31.3-26.53,8.35-1.4,16.73-1.12,25.16-.37,3.11.28,4.12,1.55,4.23,4.35,0,.93-.46,2.1.68,2.79v17.78c-1.26,1.74-.94,3.86-1.32,5.8-3,15.61-11.63,26.17-27.39,30.18a70.57,70.57,0,0,1-24.73,1.89,5.54,5.54,0,0,0-5.12,1.75c-3.85,4-7.92,7.8-11.9,11.69Zm19.91-24.57,42.64-43.28a61.48,61.48,0,0,0-20.5,1.52c-11.3,2.67-18.16,9.67-20.8,21C148.37,154.39,148.23,161.17,148.59,168.43Z"/><path class="cls-2" d="M67.85,95.46c.39-19.62,17.29-36.59,37-37.17,3.92-.11,6.11,1.56,6.17,4.72s-1.75,4.67-5.63,4.89c-15.59.89-27,12.41-28,28.14-.22,3.74-2,5.6-5.06,5.44S67.77,99.18,67.85,95.46Z"/><path class="cls-2" d="M125.35,155.4l-.76-.68C125.08,154.68,125.41,154.82,125.35,155.4Z"/><path class="cls-2" d="M125.25,163.58c-.48-.28-.38-.51.07-.7Z"/><path class="cls-2" d="M125.35,174.55l-.76-.64C125.06,173.87,125.41,174,125.35,174.55Z"/></g></g></svg>