<svg xmlns="http://www.w3.org/2000/svg" viewBox="0 0 237 237"><defs><style>.cls-1{fill:#fff;}.cls-2{fill:#059115;}</style></defs><g id="Camada_2" data-name="Camada 2"><g id="Camada_8" data-name="Camada 8"><circle class="cls-1" cx="118.5" cy="118.5" r="118.5"/><path class="cls-2" d="M94.88,67.3c-5.44,1.43,3.83-.84.06-.07a50,50,0,0,0-36,29.67h0a226.77,226.77,0,0,0-8.68,26.93c-1.89,7.47-17.64,17.25-18.78,18.73-.09.11-.92.7-.79.71,4.21,0,9.2-2,12.57-2.65,13.82-2.78,26.42-6.36,40.13-9.54,12.92-3,17.33-12.39,20.49-23.52,1-3.64,1.3-14.07.57-20.21,0-.1.23-.14.25,0,2,11,5.63,14.57.58,26.43-.58,1.37-8,12.12-7.22,13,.49.58,10.29-6,12.06-7,15.21-9,27.08-13,31.92-25.34,1.72-4.39-1-18.14.34-14.25C148.49,98.28,140.1,104,140.2,104c6.19-2.46,19.48-9.71,26-13.1,4.17-2.17,7.06-2.58,14.23-3.19.12,0,.2.23.09.26-9.08,2.37-28.28,14.42-39.33,19.83-2.3,1.13-10.55,5.58-8.83,6C138,115.26,144.15,122.15,147,127c.08.13-.18.21-.28.1-7.47-8.46-14.81-11.92-22.84-9.8-9,2.37-22.08,11.93-30.75,15.23-9.1,3.46,2.41,7.63,2.42,7.64,6.69,3.11,10.85,9.3,10.76,16.13-.1,7.42,4.32,8.19-4.31-7.63-.61-1.13-9-8-18.79-10.33-5.53-1.33-14.89.88-18.6,2-9.11,2.72-18,4.69-27.1,9.34a.16.16,0,0,0,.1.3c15.19-2.11,24.61,8.49,35.8,14.83a57.16,57.16,0,0,0,27.73,7.38c27.78.52,45.92-14.94,60.83-36,10.51-14.83,19.09-31,30.91-44.95,4-4.75,6.31-9.16,13.47-15,.1-.08,0-.24-.14-.24-26.06,1.08-66.84-15.21-99.6-10.27"/></g></g></svg>