<svg xmlns="http://www.w3.org/2000/svg" xmlns:xlink="http://www.w3.org/1999/xlink" viewBox="0 0 462.01 236"><defs><style>.cls-1{fill:#059115;}</style></defs><g id="Camada_2" data-name="Camada 2"><g id="Camada_1-2" data-name="Camada 1"><path class="cls-1" d="M342,114.34q41.63,0,83.26,0a29.89,29.89,0,0,0,14.14-3,25.79,25.79,0,1,0-37.69-24.1,9.67,9.67,0,0,1-.59,3.07,4.18,4.18,0,0,1-5,2.29A4,4,0,0,1,393,88.27c.32-3.45.54-7,1.63-10.27,4.2-12.55,12.94-20.38,25.83-23.35,17.39-4,35.8,7.55,40.38,24.74a34.67,34.67,0,0,1-25,42.55,40,40,0,0,1-9.7,1.12q-85.5.1-171,0c-2,0-3.88-.17-5.1-2.09a4.22,4.22,0,0,1,2.6-6.41,14.09,14.09,0,0,1,3-.26Q298.81,114.32,342,114.34Z"/><path class="cls-1" d="M324.49,145.65c21.66,0,43.32,0,65,0,7.14,0,13.89,1.23,20,5.12,10.81,6.91,16.52,16.81,16.51,29.65a34.49,34.49,0,0,1-69,.33c-.05-2.82,1.62-4.72,4.15-4.86s4.19,1.79,4.57,4.53a46.49,46.49,0,0,0,1.67,8.75,25.62,25.62,0,0,0,26.3,16.78,25.8,25.8,0,0,0-1.19-51.48c-1.11-.05-2.21-.06-3.32-.06H255.71a16.38,16.38,0,0,1-3-.24,4.22,4.22,0,0,1-3.39-4.3,4.26,4.26,0,0,1,3.54-4,18,18,0,0,1,2.65-.15Q290,145.64,324.49,145.65Z"/><path class="cls-1" d="M295.9,92.9q-20.28,0-40.54,0a13.5,13.5,0,0,1-2.47-.21,4.25,4.25,0,0,1,.35-8.42,22.93,22.93,0,0,1,2.49-.1q39.71,0,79.42,0a33.42,33.42,0,0,0,11.92-1.78,25.81,25.81,0,1,0-34.89-25.49A15.34,15.34,0,0,1,312,59a4.37,4.37,0,0,1-4.25,3.53c-2,0-4-1.37-4.06-3.43a32.57,32.57,0,0,1,.63-8.54,34.49,34.49,0,0,1,68.08,5.47c.84,17.06-9.71,31.52-26.25,35.67a41.61,41.61,0,0,1-9.7,1.12C322.93,93,309.41,92.9,295.9,92.9Z"/><image width="499" height="422" transform="scale(0.56)" xlink:href="../../../../../cli-2.png"/></g></g></svg>