<svg xmlns="http://www.w3.org/2000/svg" xmlns:xlink="http://www.w3.org/1999/xlink" viewBox="0 0 455.66 476"><defs><style>.cls-1{fill:#0a9ba3;}</style></defs><g id="Camada_2" data-name="Camada 2"><g id="Camada_2-2" data-name="Camada 2"><path class="cls-1" d="M316.52,237.64q48.27,0,96.54,0c5.73,0,11.23-.8,16.4-3.48,11.5-5.95,17.74-18.59,15.6-31.84-2-12.17-12.22-22.26-24.59-24.19a29.81,29.81,0,0,0-34.71,28.08,11.25,11.25,0,0,1-.69,3.56,4.86,4.86,0,0,1-5.79,2.66,4.69,4.69,0,0,1-3.64-5c.38-4,.63-8.15,1.89-11.92,4.88-14.54,15-23.63,30-27.07,20.16-4.64,41.52,8.76,46.82,28.69a40.2,40.2,0,0,1-29,49.34,46.67,46.67,0,0,1-11.24,1.3q-99.15.12-198.29.06c-2.32,0-4.51-.2-5.92-2.42a4.89,4.89,0,0,1,3-7.44,16.44,16.44,0,0,1,3.44-.31Z"/><path class="cls-1" d="M296.2,274c25.11,0,50.22.05,75.33,0,8.28,0,16.11,1.43,23.15,5.93,12.53,8,19.16,19.5,19.14,34.39a40,40,0,0,1-79.58,5.36,41.62,41.62,0,0,1-.41-5c-.06-3.27,1.89-5.48,4.82-5.63s4.86,2.07,5.3,5.25a52.83,52.83,0,0,0,1.94,10.14,29.69,29.69,0,0,0,30.49,19.46,29.92,29.92,0,0,0-1.38-59.7c-1.28-.06-2.57-.06-3.85-.06q-77.37,0-154.72,0a18.86,18.86,0,0,1-3.44-.27,4.91,4.91,0,0,1,.18-9.66,20.91,20.91,0,0,1,3.07-.17Z"/><path class="cls-1" d="M263,212.79H216a15.29,15.29,0,0,1-2.86-.26,4.92,4.92,0,0,1,.41-9.75,25.13,25.13,0,0,1,2.88-.12q46.05,0,92.1,0a39,39,0,0,0,13.82-2.07A29.93,29.93,0,1,0,281.92,171a18.89,18.89,0,0,1-.23,2.49,5,5,0,0,1-4.92,4.09c-2.3,0-4.62-1.59-4.71-4a37.81,37.81,0,0,1,.73-9.91,40,40,0,0,1,42-31.09c19.68,1.29,35.93,17.78,36.9,37.44s-11.26,36.55-30.44,41.36a48.17,48.17,0,0,1-11.24,1.3C294.38,212.87,278.71,212.79,263,212.79Z"/><image width="499" height="734" transform="scale(0.65)" xlink:href="../../../../../cli-1.png"/></g></g></svg>