<svg xmlns="http://www.w3.org/2000/svg" viewBox="0 0 237 237"><defs><style>.cls-1{fill:#fff;}.cls-2{fill:#059115;}</style></defs><g id="Camada_2" data-name="Camada 2"><g id="Camada_8" data-name="Camada 8"><circle class="cls-1" cx="118.5" cy="118.5" r="118.5"/><path class="cls-2" d="M86,179.91C64.25,167,57.39,136.74,71.17,115.54c4.3-6.62,10-12.37,15.12-18.4,5-5.88,10.33-11.57,11-19.82.14-1.72,0-3.47,0-5.73,5.81,5.9,4.42,12.89,4.34,19.75,5.31-9.67,6.45-31.71-9.41-51.64,37.3,2.71,74.09,38.07,67.13,87.57.85-2.94,1.83-5.85,2.51-8.83s1-5.89,1.55-9.42c5.41,9.52,7.79,19.31,7,29.69-2,24.88-18.6,44-43.05,48.68a61.06,61.06,0,0,1-20.63.09C94.63,185.59,88.27,177,85,165.8c-.28-1-.51-2-.78-2.92a7.87,7.87,0,0,0-.51-.93C82.07,168.15,83.75,173.71,86,179.91Z"/></g></g></svg>