<svg xmlns="http://www.w3.org/2000/svg" viewBox="0 0 237 237"><defs><style>.cls-1{fill:#fff;}.cls-2{fill:#059115;}</style></defs><g id="Camada_2" data-name="Camada 2"><g id="Camada_8" data-name="Camada 8"><circle class="cls-1" cx="118.5" cy="118.5" r="118.5"/><path class="cls-2" d="M117.67,118c0,19.24,0,38.47-.06,57.71a15.77,15.77,0,0,1-1.31,6,4.65,4.65,0,0,1-6.42,2.4,16.18,16.18,0,0,1-4.59-3.15q-18.95-18.45-37.76-37a4.26,4.26,0,0,0-3.34-1.37c-6,.08-11.94,0-17.91,0-4.69,0-6.92-2.25-6.92-6.9q0-17.34,0-34.66c0-4.28,2.21-6.59,6.49-6.63q9.21-.09,18.41,0a4,4,0,0,0,3.07-1.22q18.82-18.57,37.72-37.07c1.71-1.67,3.51-3.2,6-3.51,2.79-.34,5,.78,5.88,3.44a13.76,13.76,0,0,1,.65,4.38q.06,28.77,0,57.54Z"/><path class="cls-2" d="M196.26,118.1c-.31,18.44-6.6,34.2-19.41,47.26a66.23,66.23,0,0,1-16.49,12.13c-2.88,1.52-6,1.08-7.86-1.12a5.81,5.81,0,0,1-.24-7.35,11.08,11.08,0,0,1,3.24-2.49c11.34-6.27,19.78-15.22,24.56-27.29,7-17.72,5.35-34.76-5-50.81A52.52,52.52,0,0,0,155,70.31c-2.42-1.27-4-3.12-3.86-6a5.65,5.65,0,0,1,7.71-5.21,45.69,45.69,0,0,1,8.24,4.56c15.4,10.71,24.84,25.31,28.17,43.8.26,1.47.47,2.95.6,4.43C196,114,196.14,116.16,196.26,118.1Z"/><path class="cls-2" d="M172.09,120.22c-.71,16.84-8.77,31.05-24.89,40.5a5.92,5.92,0,0,1-8.08-1.63,5.68,5.68,0,0,1,1.41-8.18c1.92-1.48,4.1-2.63,6-4.15a36.23,36.23,0,0,0-4.36-59.49c-2.68-1.58-4.59-3.46-4.15-6.84a5.71,5.71,0,0,1,7.76-4.65,39.12,39.12,0,0,1,13.68,10.27C167.77,95.25,171.88,106.12,172.09,120.22Z"/><path class="cls-2" d="M147.85,118.6a24,24,0,0,1-17.06,23c-2.51.79-4.82.56-6.7-1.46a5.66,5.66,0,0,1-1.11-6.44,6.42,6.42,0,0,1,4.16-3.53c5.42-1.93,8.71-6.21,8.75-11.41.05-5.38-3.12-9.72-8.57-11.75-3.59-1.34-5.4-4-4.81-6.94a6.09,6.09,0,0,1,7.92-4.67A24.2,24.2,0,0,1,147.85,118.6Z"/></g></g></svg>